<mxfile host="app.diagrams.net" agent="Mozilla/5.0 (Windows NT 10.0; Win64; x64) AppleWebKit/537.36 (KHTML, like Gecko) Chrome/128.0.0.0 Safari/537.36" version="24.7.15">
  <diagram name="Page-1" id="E-NOz-mayETpQCOlt2e4">
    <mxGraphModel dx="866" dy="330" grid="1" gridSize="10" guides="1" tooltips="1" connect="1" arrows="1" fold="1" page="1" pageScale="1" pageWidth="850" pageHeight="1100" math="0" shadow="0">
      <root>
        <mxCell id="0" />
        <mxCell id="1" parent="0" />
        <mxCell id="PE8f0UMMPK1Q3fNCPN5N-1" value="Start" style="strokeWidth=2;html=1;shape=mxgraph.flowchart.start_1;whiteSpace=wrap;" vertex="1" parent="1">
          <mxGeometry x="350" y="20" width="100" height="60" as="geometry" />
        </mxCell>
        <mxCell id="PE8f0UMMPK1Q3fNCPN5N-6" style="edgeStyle=orthogonalEdgeStyle;rounded=0;orthogonalLoop=1;jettySize=auto;html=1;exitX=0;exitY=0.5;exitDx=0;exitDy=0;exitPerimeter=0;entryX=0.5;entryY=0;entryDx=0;entryDy=0;" edge="1" parent="1" source="PE8f0UMMPK1Q3fNCPN5N-2" target="PE8f0UMMPK1Q3fNCPN5N-3">
          <mxGeometry relative="1" as="geometry" />
        </mxCell>
        <mxCell id="PE8f0UMMPK1Q3fNCPN5N-7" value="Yes" style="edgeLabel;html=1;align=center;verticalAlign=middle;resizable=0;points=[];" vertex="1" connectable="0" parent="PE8f0UMMPK1Q3fNCPN5N-6">
          <mxGeometry x="-0.59" y="1" relative="1" as="geometry">
            <mxPoint as="offset" />
          </mxGeometry>
        </mxCell>
        <mxCell id="PE8f0UMMPK1Q3fNCPN5N-8" style="edgeStyle=orthogonalEdgeStyle;rounded=0;orthogonalLoop=1;jettySize=auto;html=1;exitX=1;exitY=0.5;exitDx=0;exitDy=0;exitPerimeter=0;entryX=0.5;entryY=0;entryDx=0;entryDy=0;" edge="1" parent="1" source="PE8f0UMMPK1Q3fNCPN5N-2" target="PE8f0UMMPK1Q3fNCPN5N-13">
          <mxGeometry relative="1" as="geometry" />
        </mxCell>
        <mxCell id="PE8f0UMMPK1Q3fNCPN5N-9" value="No" style="edgeLabel;html=1;align=center;verticalAlign=middle;resizable=0;points=[];" vertex="1" connectable="0" parent="PE8f0UMMPK1Q3fNCPN5N-8">
          <mxGeometry x="-0.6544" y="1" relative="1" as="geometry">
            <mxPoint as="offset" />
          </mxGeometry>
        </mxCell>
        <mxCell id="PE8f0UMMPK1Q3fNCPN5N-2" value="Is Sunday ?" style="strokeWidth=2;html=1;shape=mxgraph.flowchart.decision;whiteSpace=wrap;" vertex="1" parent="1">
          <mxGeometry x="350" y="150" width="100" height="100" as="geometry" />
        </mxCell>
        <mxCell id="PE8f0UMMPK1Q3fNCPN5N-11" style="edgeStyle=orthogonalEdgeStyle;rounded=0;orthogonalLoop=1;jettySize=auto;html=1;exitX=0.5;exitY=1;exitDx=0;exitDy=0;entryX=0;entryY=0.5;entryDx=0;entryDy=0;" edge="1" parent="1" source="PE8f0UMMPK1Q3fNCPN5N-3" target="PE8f0UMMPK1Q3fNCPN5N-10">
          <mxGeometry relative="1" as="geometry" />
        </mxCell>
        <mxCell id="PE8f0UMMPK1Q3fNCPN5N-3" value="Holiday" style="rounded=1;whiteSpace=wrap;html=1;" vertex="1" parent="1">
          <mxGeometry x="180" y="330" width="120" height="60" as="geometry" />
        </mxCell>
        <mxCell id="PE8f0UMMPK1Q3fNCPN5N-12" style="edgeStyle=orthogonalEdgeStyle;rounded=0;orthogonalLoop=1;jettySize=auto;html=1;exitX=0.5;exitY=1;exitDx=0;exitDy=0;entryX=1;entryY=0.5;entryDx=0;entryDy=0;" edge="1" parent="1" source="PE8f0UMMPK1Q3fNCPN5N-4" target="PE8f0UMMPK1Q3fNCPN5N-10">
          <mxGeometry relative="1" as="geometry" />
        </mxCell>
        <mxCell id="PE8f0UMMPK1Q3fNCPN5N-4" value="Lecture" style="rounded=1;whiteSpace=wrap;html=1;" vertex="1" parent="1">
          <mxGeometry x="680" y="460" width="120" height="60" as="geometry" />
        </mxCell>
        <mxCell id="PE8f0UMMPK1Q3fNCPN5N-5" value="" style="endArrow=classic;html=1;rounded=0;exitX=0.5;exitY=1;exitDx=0;exitDy=0;exitPerimeter=0;" edge="1" parent="1" source="PE8f0UMMPK1Q3fNCPN5N-1">
          <mxGeometry width="50" height="50" relative="1" as="geometry">
            <mxPoint x="270" y="170" as="sourcePoint" />
            <mxPoint x="400" y="150" as="targetPoint" />
            <Array as="points" />
          </mxGeometry>
        </mxCell>
        <mxCell id="PE8f0UMMPK1Q3fNCPN5N-10" value="End" style="ellipse;whiteSpace=wrap;html=1;" vertex="1" parent="1">
          <mxGeometry x="340" y="580" width="120" height="80" as="geometry" />
        </mxCell>
        <mxCell id="PE8f0UMMPK1Q3fNCPN5N-14" style="edgeStyle=orthogonalEdgeStyle;rounded=0;orthogonalLoop=1;jettySize=auto;html=1;exitX=0;exitY=0.5;exitDx=0;exitDy=0;entryX=0.5;entryY=0;entryDx=0;entryDy=0;" edge="1" parent="1" source="PE8f0UMMPK1Q3fNCPN5N-13" target="PE8f0UMMPK1Q3fNCPN5N-3">
          <mxGeometry relative="1" as="geometry" />
        </mxCell>
        <mxCell id="PE8f0UMMPK1Q3fNCPN5N-15" value="Yes" style="edgeLabel;html=1;align=center;verticalAlign=middle;resizable=0;points=[];" vertex="1" connectable="0" parent="PE8f0UMMPK1Q3fNCPN5N-14">
          <mxGeometry x="-0.5645" y="4" relative="1" as="geometry">
            <mxPoint as="offset" />
          </mxGeometry>
        </mxCell>
        <mxCell id="PE8f0UMMPK1Q3fNCPN5N-16" style="edgeStyle=orthogonalEdgeStyle;rounded=0;orthogonalLoop=1;jettySize=auto;html=1;exitX=1;exitY=0.5;exitDx=0;exitDy=0;entryX=0.5;entryY=0;entryDx=0;entryDy=0;" edge="1" parent="1" source="PE8f0UMMPK1Q3fNCPN5N-13" target="PE8f0UMMPK1Q3fNCPN5N-18">
          <mxGeometry relative="1" as="geometry" />
        </mxCell>
        <mxCell id="PE8f0UMMPK1Q3fNCPN5N-17" value="No" style="edgeLabel;html=1;align=center;verticalAlign=middle;resizable=0;points=[];" vertex="1" connectable="0" parent="PE8f0UMMPK1Q3fNCPN5N-16">
          <mxGeometry x="-0.6347" relative="1" as="geometry">
            <mxPoint as="offset" />
          </mxGeometry>
        </mxCell>
        <mxCell id="PE8f0UMMPK1Q3fNCPN5N-13" value="is Festival ?" style="rhombus;whiteSpace=wrap;html=1;" vertex="1" parent="1">
          <mxGeometry x="470" y="250" width="80" height="80" as="geometry" />
        </mxCell>
        <mxCell id="PE8f0UMMPK1Q3fNCPN5N-20" style="edgeStyle=orthogonalEdgeStyle;rounded=0;orthogonalLoop=1;jettySize=auto;html=1;exitX=1;exitY=0.5;exitDx=0;exitDy=0;" edge="1" parent="1" source="PE8f0UMMPK1Q3fNCPN5N-18" target="PE8f0UMMPK1Q3fNCPN5N-4">
          <mxGeometry relative="1" as="geometry" />
        </mxCell>
        <mxCell id="PE8f0UMMPK1Q3fNCPN5N-22" style="edgeStyle=orthogonalEdgeStyle;rounded=0;orthogonalLoop=1;jettySize=auto;html=1;exitX=0;exitY=0.5;exitDx=0;exitDy=0;" edge="1" parent="1" source="PE8f0UMMPK1Q3fNCPN5N-18" target="PE8f0UMMPK1Q3fNCPN5N-21">
          <mxGeometry relative="1" as="geometry" />
        </mxCell>
        <mxCell id="PE8f0UMMPK1Q3fNCPN5N-18" value="is MWF&amp;nbsp;&lt;div&gt;day ?&lt;/div&gt;" style="rhombus;whiteSpace=wrap;html=1;" vertex="1" parent="1">
          <mxGeometry x="620" y="340" width="80" height="80" as="geometry" />
        </mxCell>
        <mxCell id="PE8f0UMMPK1Q3fNCPN5N-23" style="edgeStyle=orthogonalEdgeStyle;rounded=0;orthogonalLoop=1;jettySize=auto;html=1;exitX=0.5;exitY=1;exitDx=0;exitDy=0;" edge="1" parent="1" source="PE8f0UMMPK1Q3fNCPN5N-21" target="PE8f0UMMPK1Q3fNCPN5N-10">
          <mxGeometry relative="1" as="geometry" />
        </mxCell>
        <mxCell id="PE8f0UMMPK1Q3fNCPN5N-21" value="Lab" style="rounded=1;whiteSpace=wrap;html=1;" vertex="1" parent="1">
          <mxGeometry x="510" y="460" width="120" height="60" as="geometry" />
        </mxCell>
      </root>
    </mxGraphModel>
  </diagram>
</mxfile>
